<!-- Generated by IcoMoon.io -->
<svg version="1.1" xmlns="http://www.w3.org/2000/svg" width="1969" height="512" viewBox="0 0 1969 512">
<title></title>
<g id="icomoon-ignore">
</g>
<path fill="#fff" d="M971.098 386.85c-15.494 0-29.542-2.649-42.064-7.947s-23.28-12.523-32.111-21.594c-8.831-9.071-15.654-19.668-20.471-31.709s-7.225-24.725-7.225-38.051c0-13.808 2.328-26.732 6.984-38.934s11.48-22.879 20.31-32.111c8.831-9.232 19.587-16.537 32.271-21.995 12.683-5.379 26.893-8.108 42.626-8.108s29.862 2.73 42.225 8.108c12.443 5.379 23.039 12.684 31.709 21.755 8.75 9.071 15.413 19.667 19.909 31.709 4.575 12.042 6.823 24.645 6.823 37.65 0 3.211-0.081 6.262-0.16 9.231-0.16 2.97-0.401 5.378-0.883 7.385h-149.474c0.722 7.626 2.569 14.37 5.539 20.31s6.743 10.918 11.48 15.172c4.656 4.175 9.954 7.385 15.894 9.633s12.042 3.291 18.463 3.291c9.874 0 19.106-2.409 27.856-7.225s14.691-11.159 17.902-19.026l42.466 11.8c-7.145 14.771-18.543 26.892-34.118 36.365-15.734 9.553-34.358 14.289-55.952 14.289zM1021.27 270.209c-1.204-14.53-6.582-26.17-16.055-34.92s-20.952-13.085-34.519-13.085c-6.663 0-12.844 1.204-18.624 3.532s-10.918 5.619-15.332 9.793c-4.415 4.174-8.028 9.232-10.918 15.172-2.809 5.941-4.495 12.443-4.977 19.588h100.425z"></path>
<path fill="#fff" d="M1191.697 386.85c-15.734 0-29.862-2.729-42.466-8.108-12.523-5.378-23.199-12.764-31.95-21.995s-15.413-19.909-20.149-31.95c-4.656-12.041-6.984-24.725-6.984-38.051 0-13.567 2.328-26.33 6.984-38.372s11.399-22.718 20.149-31.95c8.75-9.232 19.347-16.537 31.95-21.995 12.523-5.379 26.732-8.108 42.466-8.108s29.862 2.73 42.225 8.108c12.443 5.379 23.039 12.764 31.709 21.995 8.75 9.232 15.413 19.909 20.149 31.95 4.656 12.041 6.984 24.885 6.984 38.372 0 13.326-2.328 25.929-6.984 38.051-4.656 12.041-11.319 22.718-19.909 31.95s-19.186 16.537-31.709 21.995c-12.603 5.378-26.732 8.108-42.466 8.108zM1141.122 286.826c0 8.589 1.284 16.457 3.853 23.44s6.181 13.085 10.677 18.303c4.575 5.137 9.874 9.151 16.055 11.961s12.764 4.255 19.909 4.255c7.145 0 13.807-1.445 19.909-4.255 6.181-2.81 11.479-6.824 16.055-11.961s8.108-11.319 10.677-18.464c2.569-7.144 3.853-15.012 3.853-23.601 0-8.349-1.284-16.135-3.853-23.28s-6.181-13.326-10.677-18.464c-4.575-5.137-9.874-9.151-16.055-11.961s-12.764-4.255-19.909-4.255c-7.145 0-13.807 1.445-19.909 4.415-6.181 2.97-11.479 6.984-16.055 12.202-4.575 5.137-8.108 11.319-10.677 18.463-2.569 7.065-3.853 14.851-3.853 23.2z"></path>
<path fill="#fff" d="M1397.926 384.281c-13.085 0-24.886-2.569-35.401-7.787-10.597-5.137-19.748-12.202-27.534-21.193s-13.727-19.346-17.901-31.228c-4.175-11.8-6.262-24.324-6.262-37.649 0-14.048 2.247-27.053 6.663-39.094s10.597-22.638 18.464-31.709c7.867-9.071 17.34-16.215 28.418-21.434 11.078-5.137 23.28-7.787 36.525-7.787 15.012 0 28.177 3.371 39.496 10.115s20.711 15.815 28.016 27.133v-33.957h43.188v184.153c0 14.289-2.729 27.053-8.108 38.372s-12.844 20.952-22.316 28.819c-9.473 7.867-20.792 13.887-33.957 18.062s-27.534 6.262-43.028 6.262c-21.193 0-38.934-3.532-53.303-10.516s-26.732-16.938-37.088-29.702l26.973-26.17c7.386 9.071 16.697 16.216 27.856 21.433 11.159 5.137 23.039 7.787 35.642 7.787 7.626 0 14.931-1.043 21.995-3.131 6.984-2.087 13.245-5.378 18.624-9.793s9.633-10.115 12.764-17.019c3.051-6.904 4.575-15.012 4.575-24.324v-24.324c-6.422 11.078-15.413 19.587-26.973 25.688-11.64 5.94-24.083 8.991-37.329 8.991zM1414.462 344.785c5.379 0 10.597-0.883 15.494-2.569s9.473-4.094 13.647-6.984c4.175-2.97 7.867-6.422 11.078-10.356s5.62-8.108 7.386-12.523v-46.159c-4.415-11.319-11.399-20.39-20.871-27.294s-19.347-10.356-29.702-10.356c-7.626 0-14.53 1.686-20.711 4.977s-11.479 7.787-15.895 13.326c-4.415 5.539-7.787 11.881-10.115 19.025s-3.532 14.53-3.532 22.156c0 7.867 1.364 15.252 4.094 22.156s6.422 12.925 11.238 18.062c4.816 5.137 10.355 9.231 16.777 12.202 6.503 2.81 13.486 4.335 21.112 4.335z"></path>
<path fill="#fff" d="M1658.902 232.56c-15.012 0.241-28.418 3.131-40.218 8.67s-20.31 13.808-25.447 24.886v117.043h-49.531v-193.385h45.436v41.342c3.452-6.663 7.466-12.603 12.202-17.901 4.656-5.298 9.714-9.874 15.172-13.808 5.379-3.934 10.918-6.984 16.457-9.071s10.918-3.131 16.055-3.131c2.729 0 4.736 0 6.101 0s2.649 0.161 3.853 0.401v44.954z"></path>
<path fill="#fff" d="M1683.065 383.157v-193.385h49.45v193.385h-49.45zM1736.208 146.664c0 15.734-12.764 28.417-28.418 28.417-15.734 0-28.418-12.764-28.418-28.417s12.764-28.418 28.418-28.418c15.734 0 28.418 12.764 28.418 28.418z"></path>
<path fill="#fff" d="M1848.353 386.85c-13.326 0-25.608-2.569-36.927-7.787-11.319-5.137-21.033-12.282-29.14-21.433-8.108-9.071-14.449-19.748-19.025-31.95s-6.823-25.287-6.823-39.335 2.168-27.053 6.422-39.094c4.335-12.041 10.275-22.638 17.901-31.709s16.697-16.215 27.294-21.434c10.597-5.137 22.156-7.787 34.679-7.787 14.289 0 27.133 3.452 38.612 10.356s20.39 15.894 26.732 26.972v-101.71h49.45v204.382c0 5.137 0.883 8.83 2.569 11.078s4.656 3.452 8.831 3.692v42.065c-8.59 1.686-15.654 2.569-21.033 2.569-8.831 0-16.136-2.248-21.755-6.663-5.699-4.415-8.831-10.195-9.633-17.339l-1.124-12.202c-7.145 12.282-16.777 21.594-28.979 27.856-12.042 6.342-24.805 9.473-38.051 9.473zM1861.278 344.785c4.656 0 9.473-0.803 14.37-2.409s9.473-3.853 13.647-6.824c4.175-2.97 7.947-6.422 11.238-10.356s5.86-8.269 7.546-12.925v-46.159c-2.007-5.378-4.736-10.356-8.268-14.931s-7.626-8.51-12.202-11.8c-4.575-3.292-9.312-5.941-14.37-7.947-5.057-1.927-10.034-2.97-14.931-2.97-7.386 0-14.209 1.606-20.47 4.816s-11.64 7.546-16.055 13.085c-4.415 5.539-7.867 11.881-10.355 19.026s-3.693 14.53-3.693 22.156c0 8.108 1.364 15.654 4.094 22.478 2.729 6.904 6.422 12.925 11.078 18.062s10.275 9.231 16.777 12.202c6.503 2.97 13.647 4.495 21.594 4.495z"></path>
<path fill="#fff" d="M794.732 127.96v169.061l-134.863-169.061h-42.626v256h53.625v-164.806l129.967 164.806h43.51v-256z"></path>
<path fill="#f0000a" d="M409.327 74.175l-19.748-11.399c-30.505 70.964-72.007 136.067-122.421 193.224 50.413 57.076 91.916 122.26 122.421 193.224l19.748-11.399c45.436-26.25 73.452-74.737 73.452-127.238v-109.175c0.080-52.5-27.936-100.987-73.452-127.237z"></path>
<path fill="#f0000a" opacity="0.8" d="M168.339 348.959c41.262 47.443 75.058 101.63 99.542 160.632 16.296-2.97 32.271-8.67 47.041-17.26l74.737-43.188c-30.505-70.964-72.007-136.067-122.421-193.224-30.023 34.037-63.097 65.184-98.9 93.040z"></path>
<path fill="#f0000a" opacity="0.6" d="M52.179 422.733c6.583 5.539 13.647 10.596 21.273 15.012l94.485 54.507c30.666 17.741 66.147 23.44 99.863 17.26-24.484-59.003-58.2-113.109-99.542-160.632-36.044 28.177-74.978 52.902-116.079 73.854z"></path>
<path fill="#f0000a" opacity="0.8" d="M267.238 256c50.413-57.076 91.916-122.26 122.421-193.224l-74.737-43.188c-14.851-8.509-30.745-14.209-47.122-17.179-24.484 59.003-58.2 113.109-99.542 160.632 35.883 27.856 68.957 59.003 98.98 92.959z"></path>
<path fill="#f0000a" opacity="0.6" d="M267.8 2.409c-33.796-6.181-69.278-0.482-99.863 17.259l-94.485 54.508c-7.626 4.415-14.691 9.472-21.273 15.011 41.102 20.952 80.035 45.677 116.159 73.773 41.262-47.443 75.058-101.549 99.462-160.552z"></path>
<path fill="#f0000a" opacity="0.6" d="M168.339 163.041c-30.264 34.84-64.622 66.067-102.192 92.959 37.65 26.892 71.927 58.12 102.192 92.959 35.803-27.856 68.877-59.003 98.9-92.959-30.023-33.957-63.097-65.104-98.9-92.959z"></path>
<path fill="#f0000a" opacity="0.4" d="M66.067 256c-21.032 15.012-43.108 28.739-66.067 40.94v13.567c0 43.67 19.427 84.611 52.179 112.226 41.102-20.952 80.035-45.677 116.16-73.774-30.264-34.84-64.622-66.067-102.272-92.959z"></path>
<path fill="#f0000a" opacity="0.4" d="M168.339 163.041c-36.124-28.096-74.978-52.822-116.159-73.773-32.752 27.615-52.179 68.475-52.179 112.146v13.566c22.959 12.202 45.035 25.929 66.067 41.021 37.65-26.892 72.007-58.2 102.272-92.959z"></path>
</svg>
